<?xml version="1.0" encoding="us-ascii" standalone="no"?><svg xmlns="http://www.w3.org/2000/svg" xmlns:xlink="http://www.w3.org/1999/xlink" contentStyleType="text/css" height="713px" preserveAspectRatio="none" style="width:670px;height:713px;background:#FFFFFF;" version="1.1" viewBox="0 0 670 713" width="670px" zoomAndPan="magnify"><defs/><g><!--cluster Ressources--><g id="cluster_Ressources"><polygon fill="#CCCCEE" points="177,314,275,314,282,336.2969,653,336.2969,653,399,177,399,177,314" style="stroke:#000000;stroke-width:1.5;"/><line style="stroke:#000000;stroke-width:1.5;" x1="177" x2="282" y1="336.2969" y2="336.2969"/><text fill="#000000" font-family="sans-serif" font-size="14" font-weight="bold" lengthAdjust="spacing" textLength="92" x="181" y="328.9951">Ressources</text></g><rect fill="#F1F1F1" height="33.9688" rx="12.5" ry="12.5" style="stroke:#181818;stroke-width:0.5;" width="143" x="493.5" y="349"/><text fill="#000000" font-family="sans-serif" font-size="12" lengthAdjust="spacing" textLength="123" x="503.5" y="370.1387">Table des symboles</text><rect fill="#F1F1F1" height="33.9688" rx="12.5" ry="12.5" style="stroke:#181818;stroke-width:0.5;" width="104" x="369" y="349"/><text fill="#000000" font-family="sans-serif" font-size="12" lengthAdjust="spacing" textLength="84" x="379" y="370.1387">Tableau lit&#233;ral</text><rect fill="#F1F1F1" height="33.9688" rx="12.5" ry="12.5" style="stroke:#181818;stroke-width:0.5;" width="156" x="193" y="349"/><text fill="#000000" font-family="sans-serif" font-size="12" lengthAdjust="spacing" textLength="136" x="203" y="370.1387">Gestionnaire d'erreurs</text><ellipse cx="84" cy="16" fill="#222222" rx="10" ry="10" style="stroke:none;stroke-width:1.0;"/><rect fill="#F1F1F1" height="33.9688" rx="12.5" ry="12.5" style="stroke:#181818;stroke-width:0.5;" width="98" x="35" y="67"/><text fill="#000000" font-family="sans-serif" font-size="12" lengthAdjust="spacing" textLength="78" x="45" y="88.1387">Code source</text><rect fill="#F1F1F1" height="33.9688" rx="12.5" ry="12.5" style="stroke:#181818;stroke-width:0.5;" width="76" x="46" y="142"/><text fill="#000000" font-family="sans-serif" font-size="12" lengthAdjust="spacing" textLength="56" x="56" y="163.1387">Scanneur</text><rect fill="#F1F1F1" height="33.9688" rx="12.5" ry="12.5" style="stroke:#181818;stroke-width:0.5;" width="79" x="44.5" y="230"/><text fill="#000000" font-family="sans-serif" font-size="12" lengthAdjust="spacing" textLength="59" x="54.5" y="251.1387">Analyseur</text><rect fill="#F1F1F1" height="33.9688" rx="12.5" ry="12.5" style="stroke:#181818;stroke-width:0.5;" width="154" x="7" y="349"/><text fill="#000000" font-family="sans-serif" font-size="12" lengthAdjust="spacing" textLength="134" x="17" y="370.1387">Analyseur Semantique</text><rect fill="#F1F1F1" height="33.9688" rx="12.5" ry="12.5" style="stroke:#181818;stroke-width:0.5;" width="86" x="41" y="449"/><text fill="#000000" font-family="sans-serif" font-size="12" lengthAdjust="spacing" textLength="66" x="51" y="470.1387">Optimizeur</text><rect fill="#F1F1F1" height="33.9688" rx="12.5" ry="12.5" style="stroke:#181818;stroke-width:0.5;" width="143" x="12.5" y="537"/><text fill="#000000" font-family="sans-serif" font-size="12" lengthAdjust="spacing" textLength="123" x="22.5" y="558.1387">G&#233;n&#233;rateur de code</text><rect fill="#F1F1F1" height="33.9688" rx="12.5" ry="12.5" style="stroke:#181818;stroke-width:0.5;" width="85" x="41.5" y="612"/><text fill="#000000" font-family="sans-serif" font-size="12" lengthAdjust="spacing" textLength="65" x="51.5" y="633.1387">Code cible</text><ellipse cx="84" cy="697" fill="none" rx="10" ry="10" style="stroke:#222222;stroke-width:1.0;"/><ellipse cx="84.5" cy="697.5" fill="#222222" rx="6" ry="6" style="stroke:none;stroke-width:1.0;"/><!--link start to Code source--><g id="link_start_Code source"><path d="M84,26.177 C84,36.661 84,48.015 84,60.791 " fill="none" id="start-to-Code source" style="stroke:#181818;stroke-width:1.0;"/><polygon fill="#181818" points="84,66.791,88,57.791,84,61.791,80,57.791,84,66.791" style="stroke:#181818;stroke-width:1.0;"/></g><!--link Code source to Scanneur--><g id="link_Code source_Scanneur"><path d="M84,101.201 C84,113.298 84,123.758 84,135.844 " fill="none" id="Code source-to-Scanneur" style="stroke:#181818;stroke-width:1.0;"/><polygon fill="#181818" points="84,141.844,88,132.844,84,136.844,80,132.844,84,141.844" style="stroke:#181818;stroke-width:1.0;"/></g><!--link Scanneur to Analyseur--><g id="link_Scanneur_Analyseur"><path d="M84,176.176 C84,191.551 84,208.545 84,223.897 " fill="none" id="Scanneur-to-Analyseur" style="stroke:#181818;stroke-width:1.0;"/><polygon fill="#181818" points="84,229.897,88,220.897,84,224.897,80,220.897,84,229.897" style="stroke:#181818;stroke-width:1.0;"/><text fill="#000000" font-family="sans-serif" font-size="11" lengthAdjust="spacing" textLength="41" x="85" y="207.2104">Tokens</text></g><!--link Analyseur to Analyseur Semantique--><g id="link_Analyseur_Analyseur Semantique"><path d="M84,264.268 C84,286.622 84,320.589 84,342.87 " fill="none" id="Analyseur-to-Analyseur Semantique" style="stroke:#181818;stroke-width:1.0;"/><polygon fill="#181818" points="84,348.87,88,339.87,84,343.87,80,339.87,84,348.87" style="stroke:#181818;stroke-width:1.0;"/><text fill="#000000" font-family="sans-serif" font-size="11" lengthAdjust="spacing" textLength="100" x="85" y="295.2104">Arbre de syntaxe</text></g><!--link Analyseur Semantique to Optimizeur--><g id="link_Analyseur Semantique_Optimizeur"><path d="M84,383.183 C84,401.341 84,424.626 84,442.793 " fill="none" id="Analyseur Semantique-to-Optimizeur" style="stroke:#181818;stroke-width:1.0;"/><polygon fill="#181818" points="84,448.793,88,439.793,84,443.793,80,439.793,84,448.793" style="stroke:#181818;stroke-width:1.0;"/><text fill="#000000" font-family="sans-serif" font-size="11" lengthAdjust="spacing" textLength="79" x="85" y="426.2104">Arbre attribu&#233;</text></g><!--link Optimizeur to G?n?rateur de code--><g id="link_Optimizeur_G&#233;n&#233;rateur de code"><path d="M84,483.176 C84,498.551 84,515.545 84,530.897 " fill="none" id="Optimizeur-to-G&#233;n&#233;rateur de code" style="stroke:#181818;stroke-width:1.0;"/><polygon fill="#181818" points="84,536.897,88,527.897,84,531.897,80,527.897,84,536.897" style="stroke:#181818;stroke-width:1.0;"/><text fill="#000000" font-family="sans-serif" font-size="11" lengthAdjust="spacing" textLength="111" x="85" y="514.2104">Code interm&#233;diaire</text></g><!--link G?n?rateur de code to Code cible--><g id="link_G&#233;n&#233;rateur de code_Code cible"><path d="M84,571.201 C84,583.298 84,593.758 84,605.8442 " fill="none" id="G&#233;n&#233;rateur de code-to-Code cible" style="stroke:#181818;stroke-width:1.0;"/><polygon fill="#181818" points="84,611.8442,88,602.8442,84,606.8442,80,602.8442,84,611.8442" style="stroke:#181818;stroke-width:1.0;"/></g><!--link Code cible to end--><g id="link_Code cible_end"><path d="M84,646.3146 C84,659.1407 84,670.5302 84,680.97 " fill="none" id="Code cible-to-end" style="stroke:#181818;stroke-width:1.0;"/><polygon fill="#181818" points="84,686.97,88,677.97,84,681.97,80,677.97,84,686.97" style="stroke:#181818;stroke-width:1.0;"/></g><!--link Analyseur Semantique to Table des symboles--><g id="link_Analyseur Semantique_Table des symboles"><path d="M99.2232,348.99 C118.198,329.198 152.704,297.619 190,285 C249.572,264.845 414.164,262.79 473,285 C506.647,297.701 532.1815,324.2746 548.2225,344.0356 " fill="none" id="Analyseur Semantique-to-Table des symboles" style="stroke:#181818;stroke-width:1.0;"/><polygon fill="#181818" points="552.004,348.694,549.4374,339.1854,548.8528,344.812,543.2262,344.2274,552.004,348.694" style="stroke:#181818;stroke-width:1.0;"/></g><!--link Analyseur Semantique to Tableau lit?ral--><g id="link_Analyseur Semantique_Tableau lit&#233;ral"><path d="M99.2232,348.99 C118.198,329.198 152.704,297.619 190,285 C256.939,262.352 284.535,256.051 349,285 C378.007,298.026 397.0321,323.9941 408.6941,343.6471 " fill="none" id="Analyseur Semantique-to-Tableau lit&#233;ral" style="stroke:#181818;stroke-width:1.0;"/><polygon fill="#181818" points="411.756,348.807,410.6031,339.0258,409.2044,344.5071,403.7232,343.1084,411.756,348.807" style="stroke:#181818;stroke-width:1.0;"/></g><!--link Analyseur Semantique to Gestionnaire d'erreurs--><g id="link_Analyseur Semantique_Gestionnaire d'erreurs"><path d="M161.064,366 C171.657,366 176.25,366 186.843,366 " fill="none" id="Analyseur Semantique-to-Gestionnaire d'erreurs" style="stroke:#181818;stroke-width:1.0;"/><polygon fill="#181818" points="192.843,366,183.843,362,187.843,366,183.843,370,192.843,366" style="stroke:#181818;stroke-width:1.0;"/></g><!--SRC=[ZOzDQiCm48NtEiNWBl83la8WX91beSckT36sXtQeF4f78sXQSY2VmnUBv8QGHQ7LRXxVUtfllbn0NQ-WseIE88QaBLLkKlOjYb3IwNm-X7UI-0BLMj2VuarVQwC4nNiImq-w9s1FFOhnHw9x6CsKcpGEcNqy6lVyTOkRQh0OQJyE7IDhIToDWuo3efNG3BIPkhQS32qt_YhCbmldZgZ6na7WYUBFg0WFc_osMu1lztj5g9LVtoo7733dvOzYNjKtmLFydmKJUBRIrFzfs54i3QLCX6v6gXcDxdm1]--></g></svg>