<?xml version="1.0" encoding="us-ascii" standalone="no"?><svg xmlns="http://www.w3.org/2000/svg" xmlns:xlink="http://www.w3.org/1999/xlink" contentStyleType="text/css" height="820px" preserveAspectRatio="none" style="width:495px;height:820px;background:#FFFFFF;" version="1.1" viewBox="0 0 495 820" width="495px" zoomAndPan="magnify"><defs/><g><!--cluster Phases--><g id="cluster_Phases"><polygon fill="#87CEFA" points="16,146,79,146,86,168.2969,226,168.2969,226,674,16,674,16,146" style="stroke:#000000;stroke-width:1.5;"/><line style="stroke:#000000;stroke-width:1.5;" x1="16" x2="86" y1="168.2969" y2="168.2969"/><text fill="#000000" font-family="sans-serif" font-size="14" font-weight="bold" lengthAdjust="spacing" textLength="57" x="20" y="160.9951">Phases</text></g><!--cluster Ressources--><g id="cluster_Ressources"><polygon fill="#87CEFA" points="266,281,364,281,371,303.2969,478,303.2969,478,558,266,558,266,281" style="stroke:#000000;stroke-width:1.5;"/><line style="stroke:#000000;stroke-width:1.5;" x1="266" x2="371" y1="303.2969" y2="303.2969"/><text fill="#000000" font-family="sans-serif" font-size="14" font-weight="bold" lengthAdjust="spacing" textLength="92" x="270" y="295.9951">Ressources</text></g><rect fill="#F1F1F1" height="33.9688" rx="12.5" ry="12.5" style="stroke:#181818;stroke-width:0.5;" width="76" x="54" y="189"/><text fill="#000000" font-family="sans-serif" font-size="12" lengthAdjust="spacing" textLength="56" x="64" y="210.1387">Scanneur</text><rect fill="#F1F1F1" height="33.9688" rx="12.5" ry="12.5" style="stroke:#181818;stroke-width:0.5;" width="79" x="52.5" y="324"/><text fill="#000000" font-family="sans-serif" font-size="12" lengthAdjust="spacing" textLength="59" x="62.5" y="345.1387">Analyseur</text><rect fill="#F1F1F1" height="33.9688" rx="12.5" ry="12.5" style="stroke:#181818;stroke-width:0.5;" width="154" x="40" y="412"/><text fill="#000000" font-family="sans-serif" font-size="12" lengthAdjust="spacing" textLength="134" x="50" y="433.1387">Analyseur Semantique</text><rect fill="#F1F1F1" height="33.9688" rx="12.5" ry="12.5" style="stroke:#181818;stroke-width:0.5;" width="86" x="47" y="500"/><text fill="#000000" font-family="sans-serif" font-size="12" lengthAdjust="spacing" textLength="66" x="57" y="521.1387">Optimiseur</text><rect fill="#F1F1F1" height="33.9688" rx="12.5" ry="12.5" style="stroke:#181818;stroke-width:0.5;" width="143" x="40.5" y="616"/><text fill="#000000" font-family="sans-serif" font-size="12" lengthAdjust="spacing" textLength="123" x="50.5" y="637.1387">G&#233;n&#233;rateur de code</text><rect fill="#F1F1F1" height="33.9688" rx="12.5" ry="12.5" style="stroke:#181818;stroke-width:0.5;" width="143" x="304.5" y="324"/><text fill="#000000" font-family="sans-serif" font-size="12" lengthAdjust="spacing" textLength="123" x="314.5" y="345.1387">Table des symboles</text><rect fill="#F1F1F1" height="33.9688" rx="12.5" ry="12.5" style="stroke:#181818;stroke-width:0.5;" width="104" x="324" y="412"/><text fill="#000000" font-family="sans-serif" font-size="12" lengthAdjust="spacing" textLength="84" x="334" y="433.1387">Tableau lit&#233;ral</text><rect fill="#F1F1F1" height="33.9688" rx="12.5" ry="12.5" style="stroke:#181818;stroke-width:0.5;" width="156" x="298" y="500"/><text fill="#000000" font-family="sans-serif" font-size="12" lengthAdjust="spacing" textLength="136" x="308" y="521.1387">Gestionnaire d'erreurs</text><ellipse cx="92" cy="16" fill="#222222" rx="10" ry="10" style="stroke:none;stroke-width:1.0;"/><rect fill="#F1F1F1" height="33.9688" rx="12.5" ry="12.5" style="stroke:#181818;stroke-width:0.5;" width="98" x="43" y="67"/><text fill="#000000" font-family="sans-serif" font-size="12" lengthAdjust="spacing" textLength="78" x="53" y="88.1387">Code source</text><rect fill="#F1F1F1" height="33.9688" rx="12.5" ry="12.5" style="stroke:#181818;stroke-width:0.5;" width="85" x="69.5" y="719"/><text fill="#000000" font-family="sans-serif" font-size="12" lengthAdjust="spacing" textLength="65" x="79.5" y="740.1387">Code cible</text><ellipse cx="112" cy="804" fill="none" rx="10" ry="10" style="stroke:#222222;stroke-width:1.0;"/><ellipse cx="112.5" cy="804.5" fill="#222222" rx="6" ry="6" style="stroke:none;stroke-width:1.0;"/><!--link start to Code source--><g id="link_start_Code source"><path d="M92,26.177 C92,36.661 92,48.015 92,60.791 " fill="none" id="start-to-Code source" style="stroke:#181818;stroke-width:1.0;"/><polygon fill="#181818" points="92,66.791,96,57.791,92,61.791,88,57.791,92,66.791" style="stroke:#181818;stroke-width:1.0;"/></g><!--link Code source to Scanneur--><g id="link_Code source_Scanneur"><path d="M92,101.184 C92,124.087 92,159.718 92,182.689 " fill="none" id="Code source-to-Scanneur" style="stroke:#181818;stroke-width:1.0;"/><polygon fill="#181818" points="92,188.689,96,179.689,92,183.689,88,179.689,92,188.689" style="stroke:#181818;stroke-width:1.0;"/></g><!--link Scanneur to Analyseur--><g id="link_Scanneur_Analyseur"><path d="M92,223.043 C92,248.606 92,292.301 92,317.9 " fill="none" id="Scanneur-to-Analyseur" style="stroke:#181818;stroke-width:1.0;"/><polygon fill="#181818" points="92,323.9,96,314.9,92,318.9,88,314.9,92,323.9" style="stroke:#181818;stroke-width:1.0;"/><text fill="#000000" font-family="sans-serif" font-size="11" lengthAdjust="spacing" textLength="41" x="93" y="254.2104">Tokens</text></g><!--link Analyseur to Analyseur Semantique--><g id="link_Analyseur_Analyseur Semantique"><path d="M96.702,358.176 C101.172,373.551 106.1811,390.7835 110.6441,406.1355 " fill="none" id="Analyseur-to-Analyseur Semantique" style="stroke:#181818;stroke-width:1.0;"/><polygon fill="#181818" points="112.319,411.897,113.6476,402.1382,110.9232,407.0958,105.9656,404.3714,112.319,411.897" style="stroke:#181818;stroke-width:1.0;"/><text fill="#000000" font-family="sans-serif" font-size="11" lengthAdjust="spacing" textLength="100" x="107" y="389.2104">Arbre de syntaxe</text></g><!--link Analyseur Semantique to Optimiseur--><g id="link_Analyseur Semantique_Optimiseur"><path d="M111.922,446.176 C107.094,461.551 101.672,478.8204 96.853,494.1724 " fill="none" id="Analyseur Semantique-to-Optimiseur" style="stroke:#181818;stroke-width:1.0;"/><polygon fill="#181818" points="95.056,499.897,101.5678,492.5081,96.5535,495.1265,93.935,490.1121,95.056,499.897" style="stroke:#181818;stroke-width:1.0;"/><text fill="#000000" font-family="sans-serif" font-size="11" lengthAdjust="spacing" textLength="79" x="107" y="477.2104">Arbre attribu&#233;</text></g><!--link Optimiseur to G?n?rateur de code--><g id="link_Optimiseur_G&#233;n&#233;rateur de code"><path d="M93.152,534.333 C97.334,556.005 103.5381,588.1497 107.7171,609.8057 " fill="none" id="Optimiseur-to-G&#233;n&#233;rateur de code" style="stroke:#181818;stroke-width:1.0;"/><polygon fill="#181818" points="108.854,615.697,111.0763,606.1021,107.9066,610.7876,103.2212,607.6179,108.854,615.697" style="stroke:#181818;stroke-width:1.0;"/><text fill="#000000" font-family="sans-serif" font-size="11" lengthAdjust="spacing" textLength="111" x="106" y="593.2104">Code interm&#233;diaire</text></g><!--link G?n?rateur de code to Code cible--><g id="link_G&#233;n&#233;rateur de code_Code cible"><path d="M112,650.227 C112,669.075 112,693.982 112,712.8129 " fill="none" id="G&#233;n&#233;rateur de code-to-Code cible" style="stroke:#181818;stroke-width:1.0;"/><polygon fill="#181818" points="112,718.8129,116,709.8129,112,713.8129,108,709.8129,112,718.8129" style="stroke:#181818;stroke-width:1.0;"/></g><!--link Code cible to end--><g id="link_Code cible_end"><path d="M112,753.3146 C112,766.1407 112,777.5302 112,787.97 " fill="none" id="Code cible-to-end" style="stroke:#181818;stroke-width:1.0;"/><polygon fill="#181818" points="112,793.97,116,784.97,112,788.97,108,784.97,112,793.97" style="stroke:#181818;stroke-width:1.0;"/></g><!--link Table des symboles to Tableau lit?ral--><g id="link_Table des symboles_Tableau lit&#233;ral"><path d="M376,358.176 C376,373.551 376,390.545 376,405.897 " fill="none" id="Table des symboles-to-Tableau lit&#233;ral" style="stroke:#181818;stroke-width:1.0;"/><polygon fill="#181818" points="376,411.897,380,402.897,376,406.897,372,402.897,376,411.897" style="stroke:#181818;stroke-width:1.0;"/></g><!--link Tableau lit?ral to Gestionnaire d'erreurs--><g id="link_Tableau lit&#233;ral_Gestionnaire d'erreurs"><path d="M376,446.176 C376,461.551 376,478.545 376,493.897 " fill="none" id="Tableau lit&#233;ral-to-Gestionnaire d'erreurs" style="stroke:#181818;stroke-width:1.0;"/><polygon fill="#181818" points="376,499.897,380,490.897,376,494.897,372,490.897,376,499.897" style="stroke:#181818;stroke-width:1.0;"/></g><!--link Phases to Ressources--><g id="link_Phases_Ressources"><path d="M226.0644,226.1522 C226.1415,226.3353 226.219,226.5194 226.2969,226.7044 C226.6086,227.4447 226.9269,228.2007 227.2514,228.9715 C232.4437,241.3033 239.2274,257.4148 246.0104,273.5244 C252.7933,289.6339 259.5755,305.7416 264.7646,318.0659 C265.089,318.8361 265.4071,319.5916 265.7186,320.3314 C265.7964,320.5163 263.5455,315.1705 263.6226,315.3535 " fill="none" id="Phases-to-Ressources" style="stroke:#0000FF;stroke-width:6.0;stroke-dasharray:1.0,3.0;"/><polygon fill="#0000FF" points="265.9509,320.8833,266.1449,311.0363,264.0106,316.2751,258.7719,314.1408,265.9509,320.8833" style="stroke:#0000FF;stroke-width:6.0;"/></g><!--link Ressources to Phases--><g id="link_Ressources_Phases"><path d="M266.6973,280.958 C266.6583,280.7935 266.619,280.629 266.5796,280.4644 C266.5007,280.1352 266.421,279.8058 266.3405,279.4762 C266.1794,278.817 266.0149,278.1572 265.847,277.4969 C265.5111,276.1763 265.1613,274.8541 264.7972,273.5324 C261.8841,262.9584 258.049,252.4145 253,243 C247.8915,233.4745 239.5203,224.7305 232.2455,218.2458 C230.4268,216.6246 228.6767,215.1446 227.0631,213.8289 C226.8615,213.6644 226.6619,213.5025 226.4646,213.3432 C226.366,213.2636 226.2679,213.1846 226.1704,213.1063 C226.1217,213.0671 230.7548,216.7806 230.7064,216.7418 " fill="none" id="Ressources-to-Phases" style="stroke:#0000FF;stroke-width:6.0;stroke-dasharray:1.0,3.0;"/><polygon fill="#0000FF" points="226.0246,212.9893,230.5456,221.7392,229.9261,216.1163,235.5489,215.4968,226.0246,212.9893" style="stroke:#0000FF;stroke-width:6.0;"/></g><!--SRC=[XP2_JiCm48TtFyN97MYhPcK3gJ1qGGAHRbK79pcHKnoxs6U92F50UOwy67Q2I118RFxptNU_k_Ls0rbs2_BULWZU1bUY51Vbc9YiWQTQUVImUg2NclEckzC1uLtym2T1NYfZC3WfulLqj0qQVmQvDqft_ljzxmg7a6exm-eDbmJas2h3z1fm2IjcHqKO-iW-NfXQcdLZ33AChXtwYXIvP3mClHbwfpX98r16IeeFyVV7OlwI2ZtrXlLs8nPxaC_eft6z_BsDeufrKUZZM6rXTO96w_YX0cZYr5TFRdb0dwmcvONg2fsBWNoAABuMdfrMIRwhB3DMEwwfR4oCS7DzZe8vZ9YF_zHCuay0]--></g></svg>